HIERARCHY
ROOT Hips
{
 OFFSET 0.000000 0.000000 0.000000
 CHANNELS 6 Xposition Yposition Zposition Yrotation Xrotation Zrotation
 JOINT Chest
 {
  OFFSET 0.000000 9.585900 0.002600
  CHANNELS 3 Yrotation Xrotation Zrotation
  JOINT Chest2
  {
   OFFSET 0.000000 9.601200 -0.005300
   CHANNELS 3 Yrotation Xrotation Zrotation
   JOINT Chest3
   {
    OFFSET 0.000000 9.561800 0.000000
    CHANNELS 3 Yrotation Xrotation Zrotation
    JOINT Chest4
    {
     OFFSET 0.000000 9.552100 0.000000
     CHANNELS 3 Yrotation Xrotation Zrotation
     JOINT Neck
     {
      OFFSET 0.000000 14.453000 0.000000
      CHANNELS 3 Yrotation Xrotation Zrotation
      JOINT Head
      {
       OFFSET 0.000000 8.936500 -0.011300
       CHANNELS 3 Yrotation Xrotation Zrotation
       End Site
       {
        OFFSET 0.000000 17.073600 -0.006000
       }
      }
     }
     JOINT RightCollar
     {
      OFFSET -2.921100 9.558500 0.000000
      CHANNELS 3 Yrotation Xrotation Zrotation
      JOINT RightShoulder
      {
       OFFSET -13.519700 0.000000 0.000000
       CHANNELS 3 Yrotation Xrotation Zrotation
       JOINT RightElbow
       {
        OFFSET 0.000000 -29.696600 0.000000
        CHANNELS 3 Yrotation Xrotation Zrotation
        JOINT RightWrist
        {
         OFFSET 0.000000 -24.004700 0.000000
         CHANNELS 3 Yrotation Xrotation Zrotation
         End Site
         {
          OFFSET 0.000000 -17.728500 0.000000
         }
        }
       }
      }
     }
     JOINT LeftCollar
     {
      OFFSET 2.921100 9.558500 0.000000
      CHANNELS 3 Yrotation Xrotation Zrotation
      JOINT LeftShoulder
      {
       OFFSET 13.519700 0.000000 0.000000
       CHANNELS 3 Yrotation Xrotation Zrotation
       JOINT LeftElbow
       {
        OFFSET 0.000000 -29.696600 0.000000
        CHANNELS 3 Yrotation Xrotation Zrotation
        JOINT LeftWrist
        {
         OFFSET 0.000000 -24.004700 0.000000
         CHANNELS 3 Yrotation Xrotation Zrotation
         End Site
         {
          OFFSET 0.000000 -17.728500 0.000000
         }
        }
       }
      }
     }
    }
   }
  }
 }
 JOINT RightHip
 {
  OFFSET -7.771700 -0.012900 -0.001300
  CHANNELS 3 Yrotation Xrotation Zrotation
  JOINT RightKnee
  {
   OFFSET 0.000000 -40.869800 0.001200
   CHANNELS 3 Yrotation Xrotation Zrotation
   JOINT RightAnkle
   {
    OFFSET 0.000000 -39.717900 0.002100
    CHANNELS 3 Yrotation Xrotation Zrotation
    JOINT RightToe
    {
     OFFSET 0.000000 -4.965400 11.033500
     CHANNELS 3 Yrotation Xrotation Zrotation
     End Site
     {
      OFFSET 0.000000 -1.423100 5.872300
     }
    }
   }
  }
 }
 JOINT LeftHip
 {
  OFFSET 7.771700 -0.012900 -0.001300
  CHANNELS 3 Yrotation Xrotation Zrotation
  JOINT LeftKnee
  {
   OFFSET 0.000000 -40.869800 0.001200
   CHANNELS 3 Yrotation Xrotation Zrotation
   JOINT LeftAnkle
   {
    OFFSET 0.000000 -39.717900 0.002100
    CHANNELS 3 Yrotation Xrotation Zrotation
    JOINT LeftToe
    {
     OFFSET 0.000000 -4.965400 11.033500
     CHANNELS 3 Yrotation Xrotation Zrotation
     End Site
     {
      OFFSET 0.000000 -1.423100 5.872300
     }
    }
   }
  }
 }
}
MOTION
Frames: 14
Frame Time: 0.008333
-85.088801 62.096475 18.150994 173.372728 -49.271775 -1.223207 4.163750 26.104322 1.550652 0.598417 4.296699 0.236022 0.962326 6.827493 0.387672 3.266638 21.242098 1.656128 0.373462 15.424902 0.994097 0.315361 -7.174158 1.722401 3.926094 3.720336 3.245789 -13.073338 -4.191930 -13.194794 -135.640999 -62.733278 166.890167 11.774129 12.017017 -4.668678 -7.434844 1.519777 -0.111795 -0.597953 -4.668030 15.451392 139.241452 -72.837828 -161.029207 2.990695 -7.141313 2.850325 3.144613 -17.825707 -2.911819 -0.820025 60.248761 -3.841762 2.921278 -5.295479 10.614724 0.036207 -0.162972 0.022722 -3.495414 -14.436391 5.856854 28.366466 75.887393 29.911686 0.671686 -11.062224 -5.212509 0.331917 0.783384 0.157132
-85.089534 62.096487 18.150394 173.371482 -49.267237 -1.222767 4.164248 26.107772 1.558897 0.598091 4.290908 0.230005 0.961930 6.827700 0.387948 3.266376 21.246766 1.664522 0.377275 15.429233 0.990022 0.347140 -7.134041 1.709562 3.932015 3.714337 3.244450 -13.072108 -4.192859 -13.188024 -135.627078 -62.738907 166.881978 11.776473 12.020894 -4.663785 -7.448813 1.505583 -0.108822 -0.622603 -4.657095 15.392194 139.359958 -72.870889 -161.131736 2.957383 -7.083207 2.745146 3.146724 -17.829940 -2.912331 -0.823304 60.249176 -3.847375 2.930408 -5.299002 10.620382 0.036459 -0.162866 0.020443 -3.496421 -14.439232 5.862276 28.353755 75.888836 29.896143 0.664468 -11.066447 -5.213898 0.335132 0.785290 0.158113
-85.090354 62.096524 18.149535 173.373064 -49.263298 -1.223663 4.160173 26.110847 1.565682 0.597792 4.291539 0.230549 0.961597 6.828569 0.389024 3.263938 21.241508 1.656240 0.378609 15.430734 0.988698 0.367315 -7.109068 1.704976 3.938197 3.711077 3.250008 -13.070900 -4.194083 -13.184482 -135.598679 -62.743608 166.857148 11.782683 12.022189 -4.662260 -7.469930 1.496577 -0.098317 -0.627926 -4.656818 15.354799 139.363875 -72.887156 -161.175195 2.904410 -7.031552 2.670624 3.146726 -17.834369 -2.911634 -0.828800 60.252039 -3.852996 2.921012 -5.300603 10.620564 0.035907 -0.163048 0.019962 -3.498150 -14.442768 5.865936 28.353100 75.890612 29.892807 0.659381 -11.068822 -5.215724 0.333937 0.784414 0.158636
-85.091425 62.096133 18.148728 173.376987 -49.256593 -1.224814 4.159959 26.110785 1.571205 0.597523 4.291635 0.231534 0.962464 6.833585 0.396351 3.259897 21.237419 1.654304 0.383243 15.438531 0.986118 0.366690 -7.108848 1.697563 3.934918 3.704367 3.242162 -13.063757 -4.188093 -13.164595 -135.601415 -62.751016 166.860472 11.788098 12.020606 -4.661000 -7.480349 1.485764 -0.106133 -0.654534 -4.664487 15.332363 139.408229 -72.911117 -161.219713 2.870792 -6.998271 2.583445 3.150533 -17.839436 -2.913112 -0.841904 60.252766 -3.863622 2.914810 -5.309916 10.618192 0.038318 -0.157900 0.023608 -3.504641 -14.448896 5.869109 28.355315 75.891826 29.889325 0.652992 -11.073086 -5.220250 0.337030 0.786076 0.162209
-85.092978 62.095663 18.147653 173.377195 -49.249552 -1.219949 4.156935 26.108753 1.568847 0.597534 4.292121 0.232102 0.964353 6.831416 0.398375 3.257551 21.240972 1.655575 0.390489 15.447055 0.983772 0.368672 -7.108322 1.692779 3.935261 3.697540 3.238114 -13.065262 -4.184667 -13.157160 -135.581821 -62.746769 166.848447 11.794029 12.021983 -4.659966 -7.486656 1.476172 -0.108966 -0.674828 -4.670702 15.316125 139.436337 -72.930476 -161.236454 2.830111 -6.969834 2.478079 3.153746 -17.847025 -2.916621 -0.857327 60.256405 -3.881906 2.915061 -5.315408 10.620191 0.037432 -0.156379 0.025533 -3.507226 -14.456316 5.865180 28.374738 75.891672 29.904975 0.650942 -11.073247 -5.220775 0.335268 0.784261 0.160238
-85.091404 62.096151 18.145885 173.368835 -49.250338 -1.226339 4.173426 26.114352 1.595690 0.597511 4.291335 0.232900 0.961140 6.828238 0.392564 3.257057 21.240786 1.659466 0.411537 15.468380 0.985776 0.367476 -7.100207 1.684208 3.933059 3.695898 3.236506 -13.065284 -4.183275 -13.154649 -135.561780 -62.741102 166.840610 11.806359 12.028482 -4.666515 -7.499570 1.468863 -0.117700 -0.674466 -4.668819 15.313293 139.487697 -72.928596 -161.317428 2.779950 -6.936138 2.404716 3.155673 -17.845920 -2.901538 -0.864616 60.255349 -3.889095 2.916320 -5.315726 10.619335 0.034349 -0.160927 0.022846 -3.506914 -14.454584 5.877263 28.384062 75.898571 29.918583 0.656428 -11.077791 -5.225858 0.334291 0.781663 0.157284
-85.091695 62.096090 18.144025 173.365459 -49.247346 -1.224750 4.176781 26.113321 1.599778 0.597884 4.291066 0.233352 0.960847 6.827361 0.391403 3.262457 21.239378 1.666207 0.415988 15.479924 0.983166 0.382730 -7.080424 1.680828 3.930109 3.693093 3.238745 -13.067424 -4.181199 -13.159653 -135.530827 -62.735335 166.826147 11.806561 12.029238 -4.673287 -7.515198 1.461797 -0.119187 -0.709227 -4.679969 15.294054 139.592813 -72.953555 -161.419717 2.724675 -6.904459 2.335510 3.159705 -17.850154 -2.902506 -0.861622 60.259594 -3.885051 2.916567 -5.316845 10.620499 0.034501 -0.164139 0.021077 -3.505625 -14.457349 5.878743 28.388136 75.901488 29.923394 0.659978 -11.078396 -5.225563 0.332250 0.779562 0.153870
-85.092088 62.096032 18.141867 173.367244 -49.244776 -1.225390 4.175866 26.112183 1.602117 0.598152 4.290923 0.233721 0.960474 6.827032 0.389720 3.266795 21.240023 1.670496 0.422054 15.489151 0.982280 0.413149 -7.037475 1.673211 3.934089 3.689247 3.242336 -13.072802 -4.181328 -13.163435 -135.508150 -62.733653 166.812412 11.802644 12.031603 -4.673442 -7.555149 1.448805 -0.112104 -0.751040 -4.696181 15.266909 139.860239 -72.995622 -161.667002 2.698587 -6.865083 2.290375 3.154043 -17.853324 -2.902220 -0.852510 60.263574 -3.882620 2.915574 -5.319369 10.622330 0.034869 -0.165745 0.019815 -3.508290 -14.458547 5.883199 28.372648 75.904607 29.905390 0.655870 -11.080757 -5.226256 0.339015 0.780254 0.154628
-85.092242 62.096314 18.139199 173.363654 -49.245421 -1.221997 4.178131 26.114850 1.604868 0.598405 4.290777 0.234067 0.962620 6.827545 0.394536 3.264394 21.237286 1.668255 0.429435 15.500825 0.980110 0.426878 -7.018677 1.667487 3.934102 3.687800 3.239760 -13.066919 -4.174441 -13.144346 -135.544307 -62.745656 166.845376 11.795200 12.028190 -4.667178 -7.567444 1.445019 -0.116667 -0.803097 -4.709299 15.261568 140.099202 -73.025327 -161.885157 2.664450 -6.835892 2.233411 3.155528 -17.852985 -2.903640 -0.847968 60.267681 -3.879320 2.915006 -5.323141 10.621844 0.034887 -0.166003 0.019665 -3.512660 -14.454960 5.888532 28.367277 75.907743 29.890971 0.656159 -11.085393 -5.226553 0.341506 0.782163 0.154954
-85.091599 62.096252 18.136748 173.360590 -49.243684 -1.222842 4.179554 26.116399 1.610620 0.598535 4.290484 0.234331 0.962797 6.827149 0.394907 3.271090 21.237829 1.674840 0.426168 15.503218 0.972920 0.427791 -7.016624 1.666207 3.927294 3.676394 3.233452 -13.063401 -4.164685 -13.140112 -135.521911 -62.734349 166.837430 11.801892 12.040656 -4.673913 -7.583386 1.435267 -0.124371 -0.845604 -4.717737 15.261069 140.317679 -73.048841 -162.083755 2.624008 -6.811190 2.172225 3.154706 -17.855513 -2.899930 -0.848672 60.271356 -3.881852 2.916808 -5.325552 10.622054 0.034462 -0.167028 0.019430 -3.516235 -14.456328 5.894630 28.391051 75.910527 29.911064 0.656941 -11.085725 -5.231427 0.344103 0.778924 0.156035
-85.090888 62.095089 18.135163 173.354782 -49.233293 -1.221686 4.182090 26.110486 1.614784 0.598373 4.290047 0.234563 0.962681 6.825331 0.394727 3.271835 21.236245 1.673269 0.430532 15.507953 0.973145 0.447991 -6.995848 1.658136 3.928533 3.668119 3.236129 -13.062359 -4.157768 -13.142374 -135.507799 -62.722630 166.833587 11.803347 12.046684 -4.675540 -7.600618 1.429940 -0.124187 -0.878266 -4.727879 15.261906 140.538182 -73.073593 -162.288268 2.586459 -6.787887 2.113679 3.156461 -17.868011 -2.896588 -0.851587 60.275564 -3.886294 2.918734 -5.328036 10.623145 0.035128 -0.167297 0.018503 -3.518046 -14.466465 5.901142 28.403186 75.913599 29.918728 0.667609 -11.087848 -5.235982 0.338143 0.779331 0.157441
-85.090106 62.094457 18.133070 173.353750 -49.227110 -1.223597 4.182506 26.108937 1.619168 0.598012 4.289993 0.234858 0.963073 6.821455 0.392521 3.270946 21.236935 1.676902 0.439355 15.516766 0.970551 0.465393 -6.979650 1.649987 3.933551 3.658682 3.236100 -13.064051 -4.151247 -13.145096 -135.497491 -62.711762 166.842420 11.786713 12.041994 -4.679229 -7.617776 1.421692 -0.131932 -0.910353 -4.735391 15.271653 140.744164 -73.099227 -162.480686 2.554019 -6.766151 2.050493 3.152715 -17.875719 -2.895372 -0.841518 60.280040 -3.878245 2.918811 -5.330340 10.622511 0.036402 -0.168149 0.017591 -3.520624 -14.471758 5.905037 28.411270 75.916111 29.928736 0.667965 -11.092221 -5.240766 0.350608 0.780753 0.157206
-85.091487 62.094132 18.130421 173.358053 -49.223348 -1.216111 4.171703 26.110197 1.609388 0.599411 4.288384 0.233002 0.963241 6.823486 0.392903 3.267444 21.243671 1.686456 0.447385 15.515836 0.958450 0.482922 -6.968558 1.639905 3.941399 3.641577 3.231265 -13.060715 -4.150103 -13.150504 -135.473164 -62.692852 166.827401 11.801383 12.056940 -4.680583 -7.636690 1.400565 -0.149222 -0.939584 -4.741576 15.286533 140.882344 -73.124313 -162.596327 2.515851 -6.749307 1.969300 3.153581 -17.880770 -2.909286 -0.838287 60.289008 -3.872578 2.905884 -5.336591 10.622091 0.034134 -0.166468 0.015867 -3.521175 -14.474699 5.895168 28.406557 75.916159 29.922209 0.670365 -11.093651 -5.237734 0.335972 0.781326 0.154990
-85.091472 62.093593 18.128233 173.359136 -49.217625 -1.215078 4.163477 26.108344 1.607092 0.603367 4.287418 0.232715 0.955903 6.832033 0.399401 3.266373 21.239931 1.679918 0.457967 15.519903 0.954489 0.498602 -6.962484 1.627852 3.957370 3.630289 3.227498 -13.049415 -4.151633 -13.154789 -135.468004 -62.692904 166.814179 11.806687 12.062855 -4.689216 -7.648359 1.381944 -0.158369 -0.970614 -4.747875 15.299115 140.901568 -73.145861 -162.578826 2.456106 -6.736326 1.865117 3.154091 -17.887592 -2.910524 -0.845419 60.294402 -3.880116 2.898885 -5.340518 10.623032 0.034730 -0.166048 0.015995 -3.521513 -14.479602 5.892813 28.405113 75.916624 29.928427 0.660509 -11.095687 -5.244976 0.345809 0.780743 0.157487
